<svg xmlns="http://www.w3.org/2000/svg" width="200" height="200" viewBox="0 0 108 108">
  <rect width="108" height="108" rx="16" fill="#111520"/>
  <g transform="translate(12,12) scale(0.7)">
    <path fill="#FFFFFF" d="M12,22c1.1,0,2-0.9,2-2h-4C10,21.1,10.9,22,12,22z M18,16v-5c0-3.07-1.63-5.64-4.5-6.32V4c0-0.83-0.67-1.5-1.5-1.5 c-0.83,0-1.5,0.67-1.5,1.5v0.68C7.64,5.36,6,7.92,6,11v5l-2,2v1h16v-1L18,16z"/>
  </g>
  <text x="54" y="92" font-family="Arial, Helvetica, sans-serif" font-size="10" fill="#A5B4FC" text-anchor="middle">SIGNAL</text>
</svg>